<?xml version="1.0" standalone="no"?><!DOCTYPE svg PUBLIC "-//W3C//DTD SVG 1.1//EN" "http://www.w3.org/Graphics/SVG/1.1/DTD/svg11.dtd"><svg t="1584367164912" class="icon" viewBox="0 0 1024 1024" version="1.1" xmlns="http://www.w3.org/2000/svg" p-id="1130" width="64" height="64" xmlns:xlink="http://www.w3.org/1999/xlink"><defs><style type="text/css"></style></defs><path d="M512 1024a512 512 0 1 1 512-512 512 512 0 0 1-512 512z m0-992A480 480 0 1 0 992 512 480 480 0 0 0 512 32z m16 527.542857v63.817143a32 32 0 0 1-49.755429 26.550857l-192-127.634286a31.853714 31.853714 0 0 1 0-53.028571l192-127.634286a32 32 0 0 1 49.755429 26.550857v63.817143a191.725714 191.725714 0 0 1 192 191.451429 114.633143 114.633143 0 0 1-16.054857 64.365714c-30.848-73.910857-93.202286-128.109714-175.945143-128.256z m-32-95.616v-90.422857a45.568 45.568 0 0 0-22.582857 4.589714l-150.217143 98.925715a22.747429 22.747429 0 0 0-11.702857 19.730285 26.075429 26.075429 0 0 0 11.702857 21.723429l150.217143 92.434286a51.328 51.328 0 0 0 22.582857 5.613714v-88.502857c183.478857 0 208.329143 122.788571 208.329143 122.788571 0-145.152-112.292571-186.806857-208.329143-186.806857z" p-id="1131" fill="#2c2c2c"></path></svg>