<?xml version="1.0" standalone="no"?><!DOCTYPE svg PUBLIC "-//W3C//DTD SVG 1.1//EN" "http://www.w3.org/Graphics/SVG/1.1/DTD/svg11.dtd"><svg class="icon" width="200px" height="200.00px" viewBox="0 0 1024 1024" version="1.1" xmlns="http://www.w3.org/2000/svg"><path d="M90.352941 163.960471m60.235294 0l722.82353 0q60.235294 0 60.235294 60.235294l0 632.470588q0 60.235294-60.235294 60.235294l-722.82353 0q-60.235294 0-60.235294-60.235294l0-632.470588q0-60.235294 60.235294-60.235294Z" fill="#987DF8" /><path d="M91.196235 675.960471v180.705882a60.235294 60.235294 0 0 0 60.235294 60.235294h256v-301.176471h-256a60.235294 60.235294 0 0 0-60.235294 60.235295z" fill="#A58BFF" /><path d="M91.196235 224.195765v535.130353h316.235294V163.960471h-256a60.235294 60.235294 0 0 0-60.235294 60.235294z" fill="#A58BFF" /><path d="M90.352941 481.882353h843.294118v331.294118H90.352941z" fill="#A78FFB" /><path d="M512 163.960471h271.058824v361.411764l-137.456942-83.275294L512 525.372235z" fill="#E3D9FF" /></svg>