<?xml version="1.0" standalone="no"?><!DOCTYPE svg PUBLIC "-//W3C//DTD SVG 1.1//EN" "http://www.w3.org/Graphics/SVG/1.1/DTD/svg11.dtd"><svg class="icon" width="200px" height="200.00px" viewBox="0 0 1024 1024" version="1.1" xmlns="http://www.w3.org/2000/svg"><path d="M201.386667 72.055467h648.533333a102.4 102.4 0 0 1 102.4 102.4v746.222933a68.266667 68.266667 0 0 1-92.706133 63.726933c-200.840533-76.970667-312.183467-115.473067-333.960534-115.473066-21.777067 0-133.12 38.5024-333.960533 115.473066A68.266667 68.266667 0 0 1 98.986667 920.6784V174.421333a102.4 102.4 0 0 1 102.4-102.4z" fill="#1A91F4" /><path d="M952.32 174.455467v469.572266l-443.733333 3.6864V72.055467h341.333333a102.4 102.4 0 0 1 102.4 102.4z" fill="#53B1FF" /><path d="M98.986667 207.496533h853.333333v575.658667h-853.333333z" fill="#3BA3FA" /><path d="M409.8048 546.133333c18.7392 0 33.928533 15.291733 33.928533 34.133334a34.065067 34.065067 0 0 1-29.969066 33.8944l-3.959467 0.238933H204.5952A34.030933 34.030933 0 0 1 170.666667 580.266667c0-17.5104 13.1072-31.9488 29.969066-33.8944L204.5952 546.133333h205.2096z m344.746667-204.8c16.827733 0 30.5152 15.291733 30.5152 34.133334 0 17.5104-11.776 31.9488-26.965334 33.8944l-3.584 0.238933H235.349333C218.453333 409.6 204.8 394.308267 204.8 375.466667c0-17.5104 11.776-31.9488 26.965333-33.8944L235.349333 341.333333h519.168z" fill="#FFFFFF" /></svg>