<?xml version="1.0" standalone="no"?><!DOCTYPE svg PUBLIC "-//W3C//DTD SVG 1.1//EN" "http://www.w3.org/Graphics/SVG/1.1/DTD/svg11.dtd"><svg class="icon" width="200px" height="200.00px" viewBox="0 0 1024 1024" version="1.1" xmlns="http://www.w3.org/2000/svg"><path d="M512 512m-477.866667 0a477.866667 477.866667 0 1 0 955.733334 0 477.866667 477.866667 0 1 0-955.733334 0Z" fill="#35A4EF" /><path d="M512.375467 204.8c26.589867 0 48.128 21.538133 48.128 48.128v279.210667a48.128 48.128 0 0 1-96.256 0V252.928c0-26.589867 21.572267-48.128 48.128-48.128z" fill="#38D8FF" /><path d="M731.477333 761.4464a31.1296 31.1296 0 0 1-45.056 0l-202.752-212.6848a34.235733 34.235733 0 0 1 0-47.274667 31.1296 31.1296 0 0 1 45.056 0l202.752 212.6848c12.629333 13.243733 12.629333 34.030933 0 47.274667z" fill="#38D8FF" /><path d="M448.273067 512a68.266667 63.726933 90 1 0 127.453866 0 68.266667 63.726933 90 1 0-127.453866 0Z" fill="#5FE3FF" /></svg>