<?xml version="1.0" standalone="no"?><!DOCTYPE svg PUBLIC "-//W3C//DTD SVG 1.1//EN" "http://www.w3.org/Graphics/SVG/1.1/DTD/svg11.dtd"><svg class="icon" width="200px" height="200.00px" viewBox="0 0 1024 1024" version="1.1" xmlns="http://www.w3.org/2000/svg"><path d="M270.218971 121.212343h483.474286a29.257143 29.257143 0 0 1 23.3472 11.644343l188.416 249.885257a29.257143 29.257143 0 0 1-1.8432 37.419886L533.942857 887.749486a29.257143 29.257143 0 0 1-43.037257 0.058514L60.416 421.595429a29.257143 29.257143 0 0 1-1.930971-37.390629l188.328228-251.260343a29.257143 29.257143 0 0 1 23.405714-11.702857z" fill="#FFA100" /><path d="M768.292571 121.212343l197.163886 261.558857a29.257143 29.257143 0 0 1-1.8432 37.390629L532.714057 889.066057a11.702857 11.702857 0 0 1-20.304457-7.899428L512 257.024l256.292571-135.840914z" fill="#FFC663" /><path d="M721.598171 386.340571a29.257143 29.257143 0 0 1 0.994743 1.024l22.7328 23.873829a29.257143 29.257143 0 0 1 0 40.3456l-189.410743 198.890057-22.7328 23.873829a29.257143 29.257143 0 0 1-1.726171 1.667657l1.755429-1.667657a29.4912 29.4912 0 0 1-19.456 9.0112 28.935314 28.935314 0 0 1-18.080915-4.9152 30.193371 30.193371 0 0 1-4.856685-4.096l1.960228 1.872457-0.965486-0.877714-0.994742-0.994743-22.7328-23.873829-189.410743-198.890057a29.257143 29.257143 0 0 1 0-40.374857l22.7328-23.844572a29.257143 29.257143 0 0 1 42.364343 0L512 563.960686l168.228571-176.596115a29.257143 29.257143 0 0 1 41.3696-1.024z" fill="#FFFFFF" /></svg>