<?xml version="1.0" standalone="no"?><!DOCTYPE svg PUBLIC "-//W3C//DTD SVG 1.1//EN" "http://www.w3.org/Graphics/SVG/1.1/DTD/svg11.dtd"><svg class="icon" width="200px" height="200.00px" viewBox="0 0 1024 1024" version="1.1" xmlns="http://www.w3.org/2000/svg"><path d="M933.647059 400.263529v436.705883a60.235294 60.235294 0 0 1-60.235294 60.235294H150.588235a60.235294 60.235294 0 0 1-60.235294-60.235294v-436.705883h843.294118zM90.352941 234.616471a60.235294 60.235294 0 0 1 60.235294-60.235295h722.82353a60.235294 60.235294 0 0 1 60.235294 60.235295v96.978823H90.352941V234.616471z" fill="#FF587D" /><path d="M700.807529 563.019294L933.647059 415.292235v421.647059a60.235294 60.235294 0 0 1-60.235294 60.235294H180.705882l511.006118-328.372706 9.095529-5.782588z" fill="#FF7C99" /><path d="M200.493176 565.910588h261.601883c10.932706 0 19.787294 8.854588 19.787294 19.787294v20.630589a19.787294 19.787294 0 0 1-19.787294 19.787294H200.493176A19.787294 19.787294 0 0 1 180.705882 606.328471v-20.630589c0-10.932706 8.854588-19.817412 19.787294-19.817411zM592.022588 565.910588h80.896c10.932706 0 19.787294 8.854588 19.787294 19.787294v20.630589a19.787294 19.787294 0 0 1-19.787294 19.787294h-80.896a19.787294 19.787294 0 0 1-19.787294-19.787294v-20.630589c0-10.932706 8.854588-19.817412 19.787294-19.817411zM200.493176 656.263529h231.484236c10.932706 0 19.787294 8.854588 19.787294 19.787295v20.630588a19.787294 19.787294 0 0 1-19.787294 19.787294H200.493176A19.787294 19.787294 0 0 1 180.705882 696.681412v-20.630588c0-10.932706 8.854588-19.817412 19.787294-19.817412z" fill="#FFFFFF" /></svg>