<?xml version="1.0" standalone="no"?><!DOCTYPE svg PUBLIC "-//W3C//DTD SVG 1.1//EN" "http://www.w3.org/Graphics/SVG/1.1/DTD/svg11.dtd"><svg class="icon" width="200px" height="200.00px" viewBox="0 0 1024 1024" version="1.1" xmlns="http://www.w3.org/2000/svg"><path d="M481.882353 512m-451.764706 0a451.764706 451.764706 0 1 0 903.529412 0 451.764706 451.764706 0 1 0-903.529412 0Z" fill="#77D450" /><path d="M747.429647 146.492235A451.162353 451.162353 0 0 1 933.647059 512c0 249.494588-202.270118 451.764706-451.764706 451.764706-24.726588 0-49.001412-1.987765-72.643765-5.812706C630.512941 850.612706 783.058824 623.826824 783.058824 361.411765c0-73.185882-11.866353-143.600941-33.792-209.438118z" fill="#5DCE36" /><path d="M421.647059 210.823529m45.17647 0l0 0q45.176471 0 45.176471 45.176471l0 271.058824q0 45.176471-45.176471 45.17647l0 0q-45.176471 0-45.17647-45.17647l0-271.058824q0-45.176471 45.17647-45.176471Z" fill="#FBFBFB" /><path d="M642.349176 687.525647a45.176471 45.176471 0 0 1-63.849411 0l-138.450824-138.420706 63.87953-63.879529 138.420705 138.420706a45.176471 45.176471 0 0 1 0 63.879529z" fill="#FBFBFB" /></svg>