<?xml version="1.0" standalone="no"?><!DOCTYPE svg PUBLIC "-//W3C//DTD SVG 1.1//EN" "http://www.w3.org/Graphics/SVG/1.1/DTD/svg11.dtd"><svg class="icon" width="200px" height="200.00px" viewBox="0 0 1024 1024" version="1.1" xmlns="http://www.w3.org/2000/svg"><path d="M512 768l-249.941333 131.413333a28.444444 28.444444 0 0 1-41.244445-30.008889l47.701334-278.300444-202.183112-197.091556a28.444444 28.444444 0 0 1 15.758223-48.526222l279.438222-40.590222 124.956444-253.212444a28.444444 28.444444 0 0 1 51.029334 0l124.956444 253.212444 279.438222 40.590222a28.444444 28.444444 0 0 1 15.758223 48.526222l-202.183112 197.12 47.729778 278.272a28.444444 28.444444 0 0 1-41.272889 29.980445L512 768z" fill="#FFC500" /><path d="M512 768l-249.941333 131.413333a28.444444 28.444444 0 0 1-41.244445-30.008889l47.701334-278.300444c36.124444-190.805333 67.128889-286.208 93.013333-286.208 38.826667 0 393.955556 261.774222 393.955555 286.208 0 16.298667-81.180444 75.264-243.484444 176.896z" fill="#FED902" /></svg>