<?xml version="1.0" standalone="no"?><!DOCTYPE svg PUBLIC "-//W3C//DTD SVG 1.1//EN" "http://www.w3.org/Graphics/SVG/1.1/DTD/svg11.dtd"><svg class="icon" width="200px" height="200.00px" viewBox="0 0 1024 1024" version="1.1" xmlns="http://www.w3.org/2000/svg"><path d="M129.706667 614.4a382.293333 375.466667 0 1 0 764.586666 0 382.293333 375.466667 0 1 0-764.586666 0Z" fill="#FA656A" /><path d="M826.845867 34.0992a102.4 102.4 0 0 1 48.674133 125.815467l-52.053333 142.677333c-4.266667 11.707733-10.478933 22.186667-18.090667 31.163733-56.5248-60.450133-130.116267-103.492267-212.650667-120.661333l43.008-117.76c9.5232-26.112 26.897067-47.104 48.5376-61.201067l142.574934-0.034133z m-485.376 0c18.7392 12.731733 34.133333 30.6176 43.8272 52.599467l3.003733 7.509333 43.349333 118.784c-82.432 17.066667-155.989333 59.938133-212.514133 120.149333a100.9664 100.9664 0 0 1-16.384-26.112l-2.218667-5.597866-52.053333-142.677334a102.4 102.4 0 0 1 41.198933-121.514666L194.9696 34.133333h146.500267z" fill="#FA656A" /><path d="M496.3328 699.2896l-66.116267 34.133333a17.066667 17.066667 0 0 1-24.644266-18.090666l12.3904-71.0656a34.133333 34.133333 0 0 0-10.001067-30.5152l-52.394667-50.176a17.066667 17.066667 0 0 1 9.386667-29.218134l73.216-10.4448a34.133333 34.133333 0 0 0 25.668267-18.432l32.904533-65.536a17.066667 17.066667 0 0 1 30.5152 0l32.904533 65.536a34.133333 34.133333 0 0 0 25.668267 18.432l73.216 10.4448a17.066667 17.066667 0 0 1 9.386667 29.218134l-52.394667 50.176a34.133333 34.133333 0 0 0-10.001067 30.5152l12.3904 71.0656a17.066667 17.066667 0 0 1-24.644266 18.090666l-66.116267-34.133333a34.133333 34.133333 0 0 0-31.3344 0z" fill="#FFFFFF" /></svg>