<?xml version="1.0" standalone="no"?><!DOCTYPE svg PUBLIC "-//W3C//DTD SVG 1.1//EN" "http://www.w3.org/Graphics/SVG/1.1/DTD/svg11.dtd"><svg class="icon" width="200px" height="200.00px" viewBox="0 0 1024 1024" version="1.1" xmlns="http://www.w3.org/2000/svg"><path d="M146.285714 109.714286h731.428572a109.714286 109.714286 0 0 1 109.714285 109.714285v748.397715a35.876571 35.876571 0 0 1-49.517714 33.170285L726.710857 914.285714H146.285714a109.714286 109.714286 0 0 1-109.714285-109.714285V219.428571a109.714286 109.714286 0 0 1 109.714285-109.714285z" fill="#6F89F3" /><path d="M36.571429 402.285714h950.857142v219.428572H36.571429z" fill="#6A79F1" /><path d="M740.278857 475.428571C795.977143 475.428571 841.142857 516.388571 841.142857 566.857143c0 22.235429-8.777143 42.605714-23.296 58.441143h0.292572l-129.097143 136.850285-0.512 0.475429a14.628571 14.628571 0 0 1-20.662857-0.365714l-135.131429-139.483429A87.113143 87.113143 0 0 1 512 566.857143c0-50.468571 45.165714-91.428571 100.864-91.428572 24.173714 0 46.372571 7.716571 63.744 20.589715a106.459429 106.459429 0 0 1 63.634286-20.589715z" fill="#FFFFFF" /><path d="M256 292.571429m54.857143 0l402.285714 0q54.857143 0 54.857143 54.857142l0 0q0 54.857143-54.857143 54.857143l-402.285714 0q-54.857143 0-54.857143-54.857143l0 0q0-54.857143 54.857143-54.857142Z" fill="#FFFFFF" /><path d="M292.571429 475.428571h86.418285a36.571429 36.571429 0 1 1 0 73.142858H292.571429a36.571429 36.571429 0 0 1 0-73.142858z" fill="#FFFFFF" /></svg>