<?xml version="1.0" standalone="no"?><!DOCTYPE svg PUBLIC "-//W3C//DTD SVG 1.1//EN" "http://www.w3.org/Graphics/SVG/1.1/DTD/svg11.dtd"><svg class="icon" width="200px" height="200.00px" viewBox="0 0 1024 1024" version="1.1" xmlns="http://www.w3.org/2000/svg"><path d="M438.857143 0h365.714286a109.714286 109.714286 0 0 1 109.714285 109.714286v804.571428a109.714286 109.714286 0 0 1-109.714285 109.714286H219.428571a109.714286 109.714286 0 0 1-109.714285-109.714286V329.142857a329.142857 329.142857 0 0 1 329.142857-329.142857z" fill="#F76B6C" /><path d="M109.714286 292.571429h292.571428a109.714286 109.714286 0 0 1 109.714286 109.714285v621.714286H219.428571a109.714286 109.714286 0 0 1-109.714285-109.714286V292.571429z" fill="#FC7D7C" /><path d="M914.285714 731.428571h-292.571428a109.714286 109.714286 0 0 1-109.714286-109.714285V0h292.571429a109.714286 109.714286 0 0 1 109.714285 109.714286v621.714285z" fill="#FB8080" /><path d="M512 1024h292.571429a109.714286 109.714286 0 0 0 109.714285-109.714286V530.285714h-292.571428a109.714286 109.714286 0 0 0-109.714286 109.714286V1024z" fill="#F76B6C" /><path d="M292.571429 219.428571m73.142857 0l292.571428 0q73.142857 0 73.142857 73.142858l0 0q0 73.142857-73.142857 73.142857l-292.571428 0q-73.142857 0-73.142857-73.142857l0 0q0-73.142857 73.142857-73.142858Z" fill="#FFFFFF" /><path d="M292.571429 512m36.571428 0l365.714286 0q36.571429 0 36.571428 36.571429l0 0q0 36.571429-36.571428 36.571428l-365.714286 0q-36.571429 0-36.571428-36.571428l0 0q0-36.571429 36.571428-36.571429Z" fill="#FFFFFF" /><path d="M329.142857 658.285714h236.982857a36.571429 36.571429 0 1 1 0 73.142857H329.142857a36.571429 36.571429 0 0 1 0-73.142857z" fill="#FFFFFF" /></svg>