<?xml version="1.0" standalone="no"?><!DOCTYPE svg PUBLIC "-//W3C//DTD SVG 1.1//EN" "http://www.w3.org/Graphics/SVG/1.1/DTD/svg11.dtd"><svg class="icon" width="200px" height="200.00px" viewBox="0 0 1024 1024" version="1.1" xmlns="http://www.w3.org/2000/svg"><path d="M136.533333 273.066667l669.047467 422.058666c10.6496 6.724267 15.837867 20.48 12.6976 33.5872-3.106133 13.073067-13.824 22.186667-26.077867 22.2208H238.421333c-27.306667 0-50.346667-22.4256-53.725866-52.3264L136.533333 273.066667z" fill="#DCA54F" /><path d="M834.218667 698.606933c-3.345067 29.9008-26.385067 52.3264-53.691734 52.3264H245.794133c-12.288 0-41.984-9.1136-45.124266-22.186666-3.1744-13.073067 2.048-26.862933 12.6976-33.5872L882.346667 273.066667l-48.128 425.506133z" fill="#DCA54F" /><path d="M512 170.666667l298.427733 490.5984a61.44 61.44 0 0 1 2.184534 59.323733c-9.489067 18.705067-27.818667 30.344533-47.7184 30.344533H512V170.666667z" fill="#E7B15C" /><path d="M512 170.666667L196.061867 666.0096a61.44 61.44 0 0 0-2.184534 59.323733c9.489067 18.705067 27.3408 25.6 47.240534 25.6H512V170.666667z" fill="#F2D59C" /><path d="M459.776 153.326933c0 18.193067 9.966933 34.986667 26.112 44.100267a53.3504 53.3504 0 0 0 52.224 0c16.145067-9.1136 26.112-25.941333 26.112-44.100267C564.224 125.201067 540.842667 102.4 512 102.4s-52.224 22.801067-52.224 50.926933z m391.543467 101.853867c-0.4096 18.432 9.454933 35.669333 25.770666 45.021867 16.315733 9.3184 36.522667 9.3184 52.872534 0 16.315733-9.352533 26.180267-26.589867 25.770666-45.056-0.6144-27.648-23.825067-49.800533-52.224-49.800534-28.3648 0-51.541333 22.152533-52.189866 49.834667z m-783.018667 0c-0.443733 18.432 9.4208 35.669333 25.736533 45.021867 16.315733 9.3184 36.522667 9.3184 52.872534 0 16.315733-9.352533 26.180267-26.589867 25.770666-45.056-0.6144-27.648-23.825067-49.800533-52.224-49.800534-28.3648 0-51.541333 22.152533-52.189866 49.834667z" fill="#E7B15C" /><path d="M204.8 819.2m34.133333 0l546.133334 0q34.133333 0 34.133333 34.133333l0 0q0 34.133333-34.133333 34.133334l-546.133334 0q-34.133333 0-34.133333-34.133334l0 0q0-34.133333 34.133333-34.133333Z" fill="#DCA54F" /></svg>