<?xml version="1.0" standalone="no"?><!DOCTYPE svg PUBLIC "-//W3C//DTD SVG 1.1//EN" "http://www.w3.org/Graphics/SVG/1.1/DTD/svg11.dtd"><svg class="icon" width="200px" height="171.52px" viewBox="0 0 1194 1024" version="1.1" xmlns="http://www.w3.org/2000/svg"><path d="M992.256 225.860267a247.671467 247.671467 0 0 1-0.682667 349.764266l-295.0144 294.741334a136.465067 136.465067 0 0 1-193.058133-0.068267v-0.068267l-256.6144-257.058133L642.184533 223.914667a248.081067 248.081067 0 0 1 350.071467 1.9456z" fill="#FF7166" /><path d="M209.3056 225.860267a248.0128 248.0128 0 0 0 0.4096 350.0032l293.819733 294.365866a136.3968 136.3968 0 0 0 193.024 0.136534l253.098667-252.962134L557.943467 225.348267a246.101333 246.101333 0 0 0-348.637867 0.512z" fill="#FF938B" /><path d="M312.968533 570.845867l-1.6384 1.6384a34.133333 34.133333 0 0 0 0 48.128l101.102934 101.717333a34.133333 34.133333 0 0 0 48.4352 0l1.604266-1.604267a34.133333 34.133333 0 0 0 0-48.128l-101.0688-101.717333a34.133333 34.133333 0 0 0-48.469333 0z" fill="#FFFFFF" /></svg>