<?xml version="1.0" standalone="no"?><!DOCTYPE svg PUBLIC "-//W3C//DTD SVG 1.1//EN" "http://www.w3.org/Graphics/SVG/1.1/DTD/svg11.dtd"><svg class="icon" width="200px" height="200.00px" viewBox="0 0 1024 1024" version="1.1" xmlns="http://www.w3.org/2000/svg"><path d="M232.273135 344.858718c-59.390303 56.318391-60.377703 104.152453-28.63461 153.595612 31.743093 49.479729 100.349133 46.66381 95.33899 159.812577-5.010143 113.148767-53.100197 114.026456-60.304563 181.315962-7.204366 67.289506 9.398589 158.276621 169.576869 181.498814 160.178281 23.258764 319.222879-98.374332 354.5133-207.975772 35.326991-109.63801 83.636468-202.343933 77.894917-298.524042-6.69238-112.088226-63.193623-220.738836-203.843318-221.360532-140.686266-0.585126-255.261278-0.585126-255.261279-0.585127S291.700009 288.467187 232.236565 344.822148z" fill="#FF5851" /><path d="M232.273135 344.858718c-59.390303 56.318391-60.377703 104.152453-28.63461 153.595612 31.743093 49.479729 100.349133 46.66381 95.33899 159.812577-5.010143 113.148767-53.100197 114.026456-60.304563 181.315962-7.204366 67.289506 9.398589 158.276621 169.576869 181.498814 160.178281 23.258764 246.082112-98.374332 281.372533-207.975772 35.326991-109.63801 83.636468-202.343933 77.894917-298.524042-6.69238-112.088226-63.193623-220.738836-203.843319-221.360532-140.686266-0.585126-182.120511-0.585126-182.120511-0.585127S291.700009 288.467187 232.236565 344.822148z" fill="#FD7071" /><path d="M256.007314 146.281535m-109.711151 0a109.711151 109.711151 0 1 0 219.422302 0 109.711151 109.711151 0 1 0-219.422302 0Z" fill="#FD7375" /><path d="M493.714808 127.996343m-91.425959 0a91.425959 91.425959 0 1 0 182.851918 0 91.425959 91.425959 0 1 0-182.851918 0Z" fill="#FD7375" /><path d="M694.851919 182.851919m-73.140768 0a73.140767 73.140767 0 1 0 146.281535 0 73.140767 73.140767 0 1 0-146.281535 0Z" fill="#FD7375" /><path d="M859.418645 274.277878m-54.855575 0a54.855576 54.855576 0 1 0 109.711151 0 54.855576 54.855576 0 1 0-109.711151 0Z" fill="#FD7375" /></svg>