<?xml version="1.0" standalone="no"?><!DOCTYPE svg PUBLIC "-//W3C//DTD SVG 1.1//EN" "http://www.w3.org/Graphics/SVG/1.1/DTD/svg11.dtd"><svg class="icon" width="200px" height="200.00px" viewBox="0 0 1024 1024" version="1.1" xmlns="http://www.w3.org/2000/svg"><path d="M989.866667 409.6v409.6a102.4 102.4 0 0 1-102.4 102.4H136.533333a102.4 102.4 0 0 1-102.4-102.4V204.8a102.4 102.4 0 0 1 102.4-102.4h546.133334a307.2 307.2 0 0 1 307.2 307.2z" fill="#F76B6C" /><path d="M307.2 921.6v-307.2a102.4 102.4 0 0 1 102.4-102.4h580.266667v307.2a102.4 102.4 0 0 1-102.4 102.4H307.2z" fill="#FA7C7D" /><path d="M136.533333 102.4h273.066667v819.2H136.533333a102.4 102.4 0 0 1-102.4-102.4V204.8a102.4 102.4 0 0 1 102.4-102.4z" fill="#FC7D7C" /><path d="M34.133333 409.6h273.066667a102.4 102.4 0 0 1 0 204.8H34.133333v-204.8z" fill="#FFFFFF" /><path d="M307.2 512m-68.266667 0a68.266667 68.266667 0 1 0 136.533334 0 68.266667 68.266667 0 1 0-136.533334 0Z" fill="#FC7D7C" /></svg>