<?xml version="1.0" standalone="no"?><!DOCTYPE svg PUBLIC "-//W3C//DTD SVG 1.1//EN" "http://www.w3.org/Graphics/SVG/1.1/DTD/svg11.dtd"><svg class="icon" width="200px" height="200.00px" viewBox="0 0 1024 1024" version="1.1" xmlns="http://www.w3.org/2000/svg"><path d="M102.4 102.4m136.533333 0l546.133334 0q136.533333 0 136.533333 136.533333l0 546.133334q0 136.533333-136.533333 136.533333l-546.133334 0q-136.533333 0-136.533333-136.533333l0-546.133334q0-136.533333 136.533333-136.533333Z" fill="#8053FF" /><path d="M512 102.4h273.066667a136.533333 136.533333 0 0 1 136.533333 136.533333v546.133334a136.533333 136.533333 0 0 1-136.533333 136.533333H238.933333a136.533333 136.533333 0 0 1-136.533333-136.533333v-273.066667C102.4 285.7984 285.7984 102.4 512 102.4z" fill="#A784FF" /><path d="M699.733333 324.266667m-51.2 0a51.2 51.2 0 1 0 102.4 0 51.2 51.2 0 1 0-102.4 0Z" fill="#FFFFFF" /><path d="M620.168533 475.921067l-113.4592 200.328533a34.133333 34.133333 0 0 0 29.696 50.926933h176.366934a68.266667 68.266667 0 0 0 58.026666-104.2432l-91.921066-148.138666a34.133333 34.133333 0 0 0-58.709334 1.1264z" fill="#CCBCFB" /><path d="M398.7456 407.313067l-130.730667 214.766933a68.266667 68.266667 0 0 0 58.2656 103.765333h320.4096l-189.44-318.225066a34.133333 34.133333 0 0 0-58.504533-0.341334z" fill="#FFFFFF" /></svg>