<?xml version="1.0" standalone="no"?><!DOCTYPE svg PUBLIC "-//W3C//DTD SVG 1.1//EN" "http://www.w3.org/Graphics/SVG/1.1/DTD/svg11.dtd"><svg class="icon" width="200px" height="200.00px" viewBox="0 0 1024 1024" version="1.1" xmlns="http://www.w3.org/2000/svg"><path d="M208 81.088h172.608c11.552 0 22.72 7.328 33.536 21.952 9.472 12.8 44.896 65.536 106.304 158.272a96 96 0 0 0 79.136 42.976l217.6 2.048a128 128 0 0 1 126.816 128v350.752a128 128 0 0 1-128 128H208a128 128 0 0 1-128-128v-576a128 128 0 0 1 128-128z" fill="#F99704" /><path d="M402.88 113.088c12.416 0 24.416 7.328 36.032 21.952 10.24 12.896 48.896 58.208 115.968 135.872a96 96 0 0 0 71.808 33.28l254.432 2.24a128 128 0 0 1 126.88 128v350.656a128 128 0 0 1-128 128H208a128 128 0 0 1-128-128v-349.12c0-175.36 139.776-318.048 313.984-322.752l8.896-0.128z m511.68-0.448a32 32 0 0 1 32 32v91.648a32 32 0 0 1-32 32h-319.008L520.96 163.2a32 32 0 0 1 26.112-50.528H914.56z" fill="#FDBE60" /><path d="M400 689.088a32 32 0 0 1 3.744 63.808l-3.744 0.192H240a32 32 0 0 1-3.744-63.776L240 689.088h160z" fill="#FFDAA4" /><path d="M512 561.088a32 32 0 0 1 3.744 63.808l-3.744 0.192H240a32 32 0 0 1-3.744-63.776L240 561.088h272z" fill="#FFFFFF" /></svg>