<?xml version="1.0" standalone="no"?><!DOCTYPE svg PUBLIC "-//W3C//DTD SVG 1.1//EN" "http://www.w3.org/Graphics/SVG/1.1/DTD/svg11.dtd"><svg class="icon" width="200px" height="200.00px" viewBox="0 0 1024 1024" version="1.1" xmlns="http://www.w3.org/2000/svg"><path d="M219.428571 73.142857h585.142858a109.714286 109.714286 0 0 1 109.714285 109.714286v697.088a73.142857 73.142857 0 0 1-99.766857 68.132571c-181.577143-71.021714-282.441143-106.496-302.518857-106.496-20.114286 0-120.941714 35.474286-302.518857 106.496A73.142857 73.142857 0 0 1 109.714286 879.908571V182.857143a109.714286 109.714286 0 0 1 109.714285-109.714286z" fill="#FFB156" /><path d="M914.285714 182.857143v438.857143H512V73.142857h292.571429a109.714286 109.714286 0 0 1 109.714285 109.714286zM109.714286 292.571429h402.285714v402.285714H109.714286z" fill="#FEC965" /><path d="M512 292.571429h402.285714v402.285714H512z" fill="#FFB156" /><path d="M494.994286 630.674286l-79.177143 41.618285a18.285714 18.285714 0 0 1-26.514286-19.273142l15.104-88.137143a36.571429 36.571429 0 0 0-10.532571-32.402286l-64-62.427429A18.285714 18.285714 0 0 1 339.931429 438.857143l88.502857-12.836572a36.571429 36.571429 0 0 0 27.538285-20.004571l39.606858-80.237714a18.285714 18.285714 0 0 1 32.768 0l39.606857 80.237714a36.571429 36.571429 0 0 0 27.538285 20.004571l88.502858 12.836572a18.285714 18.285714 0 0 1 10.130285 31.195428L630.125714 532.48a36.571429 36.571429 0 0 0-10.532571 32.365714l15.104 88.137143a18.285714 18.285714 0 0 1-26.514286 19.309714l-79.177143-41.618285a36.571429 36.571429 0 0 0-34.011428 0z" fill="#FFFFFF" /></svg>