<?xml version="1.0" standalone="no"?><!DOCTYPE svg PUBLIC "-//W3C//DTD SVG 1.1//EN" "http://www.w3.org/Graphics/SVG/1.1/DTD/svg11.dtd"><svg t="1587170212340" class="icon" viewBox="0 0 1024 1024" version="1.1" xmlns="http://www.w3.org/2000/svg" p-id="1227" xmlns:xlink="http://www.w3.org/1999/xlink" width="200" height="200"><defs><style type="text/css"></style></defs><path d="M874.666667 64c0-36.266667-27.733333-64-64-64H213.333333C177.066667 0 149.333333 27.733333 149.333333 64v896c0 36.266667 27.733333 64 64 64h597.333334c36.266667 0 64-27.733333 64-64V64zM571.733333 917.333333h-128c-12.8 0-21.333333-8.533333-21.333333-21.333333s8.533333-21.333333 21.333333-21.333333h128c12.8 0 21.333333 8.533333 21.333334 21.333333s-8.533333 21.333333-21.333334 21.333333zM832 768H192V59.733333c0-12.8 6.4-17.066667 17.066667-17.066666h597.333333c12.8 0 25.6 4.266667 25.6 17.066666V768z" fill="#666767" p-id="1228"></path></svg>