<?xml version="1.0" encoding="utf-8"?>
<svg version="1.1" xmlns:xlink="http://www.w3.org/1999/xlink" width="11px" height="8px" xmlns="http://www.w3.org/2000/svg">
  <g transform="matrix(1 0 0 1 -441 -216 )">
    <path d="M 10.9416852678571 5.19940476190476  C 10.9805617559524 5.23710317460317  11 5.28174603174603  11 5.33333333333333  L 11 6.47619047619048  C 11 6.52777777777778  10.9805617559524 6.57242063492064  10.9416852678571 6.61011904761905  C 10.9028087797619 6.64781746031746  10.8567708333333 6.66666666666667  10.8035714285714 6.66666666666667  L 2.35714285714286 6.66666666666667  L 2.35714285714286 7.80952380952381  C 2.35714285714286 7.86111111111111  2.33770461309524 7.90575396825397  2.298828125 7.94345238095238  C 2.25995163690476 7.98115079365079  2.21391369047619 8  2.16071428571429 8  C 2.11160714285714 8  2.0625 7.98015873015873  2.01339285714286 7.94047619047619  L 0.0552455357142857 6.03571428571429  C 0.0184151785714286 6  0 5.95634920634921  0 5.90476190476191  C 0 5.84920634920635  0.0184151785714286 5.80357142857143  0.0552455357142857 5.76785714285714  L 2.01953125 3.86309523809524  C 2.05636160714286 3.82738095238095  2.10342261904762 3.80952380952381  2.16071428571429 3.80952380952381  C 2.21391369047619 3.80952380952381  2.25995163690476 3.82837301587302  2.298828125 3.86607142857143  C 2.33770461309524 3.90376984126984  2.35714285714286 3.9484126984127  2.35714285714286 4  L 2.35714285714286 5.14285714285714  L 10.8035714285714 5.14285714285714  C 10.8567708333333 5.14285714285714  10.9028087797619 5.16170634920635  10.9416852678571 5.19940476190476  Z M 10.9447544642857 1.95833333333333  C 10.9815848214286 1.99404761904762  11 2.03968253968254  11 2.09523809523809  C 11 2.15079365079365  10.9815848214286 2.19642857142857  10.9447544642857 2.23214285714286  L 8.98046875 4.13690476190476  C 8.94363839285714 4.17261904761905  8.89657738095238 4.19047619047619  8.83928571428572 4.19047619047619  C 8.78608630952381 4.19047619047619  8.74004836309524 4.17162698412698  8.701171875 4.13392857142857  C 8.66229538690476 4.09623015873016  8.64285714285714 4.0515873015873  8.64285714285714 4  L 8.64285714285714 2.85714285714286  L 0.196428571428571 2.85714285714286  C 0.143229166666667 2.85714285714286  0.0971912202380952 2.83829365079365  0.0583147321428571 2.80059523809524  C 0.019438244047619 2.76289682539683  0 2.71825396825397  0 2.66666666666667  L 0 1.52380952380952  C 0 1.47222222222222  0.019438244047619 1.42757936507936  0.0583147321428571 1.38988095238095  C 0.0971912202380952 1.35218253968254  0.143229166666667 1.33333333333333  0.196428571428571 1.33333333333333  L 8.64285714285714 1.33333333333333  L 8.64285714285714 0.190476190476191  C 8.64285714285714 0.134920634920634  8.66127232142857 0.0892857142857144  8.69810267857143 0.0535714285714288  C 8.73493303571428 0.0178571428571432  8.78199404761905 0  8.83928571428572 0  C 8.88839285714286 0  8.9375 0.0198412698412698  8.98660714285714 0.0595238095238093  L 10.9447544642857 1.95833333333333  Z " fill-rule="nonzero" fill="#888888" stroke="none" transform="matrix(1 0 0 1 441 216 )" />
  </g>
</svg>