<?xml version="1.0" encoding="utf-8"?>
<svg version="1.1" xmlns:xlink="http://www.w3.org/1999/xlink" width="10px" height="10px" xmlns="http://www.w3.org/2000/svg">
  <g transform="matrix(1 0 0 1 -489 -238 )">
    <path d="M 6.17838541666667 6.17838541666667  C 6.50390625 5.85286458333333  6.66666666666667 5.46006944444444  6.66666666666667 5  C 6.66666666666667 4.53993055555555  6.50390625 4.14713541666667  6.17838541666667 3.82161458333333  C 5.85286458333333 3.49609375  5.46006944444445 3.33333333333333  5 3.33333333333333  C 4.53993055555556 3.33333333333333  4.14713541666667 3.49609375  3.82161458333333 3.82161458333333  C 3.49609375 4.14713541666667  3.33333333333333 4.53993055555555  3.33333333333333 5  C 3.33333333333333 5.46006944444444  3.49609375 5.85286458333333  3.82161458333333 6.17838541666667  C 4.14713541666667 6.50390625  4.53993055555556 6.66666666666667  5 6.66666666666667  C 5.46006944444445 6.66666666666667  5.85286458333333 6.50390625  6.17838541666667 6.17838541666667  Z M 9.94791666666667 4.13736979166667  C 9.98263888888889 4.18294270833333  10 4.23394097222222  10 4.29036458333333  L 10 5.73567708333333  C 10 5.78776041666667  9.98263888888889 5.83767361111111  9.94791666666667 5.88541666666667  C 9.91319444444444 5.93315972222222  9.86979166666667 5.96137152777778  9.81770833333333 5.97005208333333  L 8.61328125 6.15234375  C 8.53081597222222 6.38671875  8.44618055555556 6.58420138888889  8.359375 6.74479166666667  C 8.51128472222222 6.96180555555556  8.74348958333333 7.26128472222222  9.05598958333333 7.64322916666667  C 9.09939236111111 7.6953125  9.12109375 7.74956597222222  9.12109375 7.80598958333333  C 9.12109375 7.86241319444445  9.1015625 7.91232638888889  9.0625 7.95572916666667  C 8.9453125 8.11631944444444  8.73046875 8.35069444444444  8.41796875 8.65885416666667  C 8.10546875 8.96701388888889  7.90147569444445 9.12109375  7.80598958333333 9.12109375  C 7.75390625 9.12109375  7.69748263888889 9.1015625  7.63671875 9.0625  L 6.73828125 8.359375  C 6.54730902777778 8.45920138888889  6.34982638888889 8.54166666666667  6.14583333333333 8.60677083333333  C 6.07638888888889 9.19704861111111  6.01345486111111 9.60069444444444  5.95703125 9.81770833333333  C 5.92664930555556 9.93923611111111  5.84852430555556 10  5.72265625 10  L 4.27734375 10  C 4.21657986111111 10  4.16341145833333 9.98155381944444  4.11783854166667 9.94466145833333  C 4.072265625 9.90776909722222  4.04730902777778 9.86111111111111  4.04296875 9.8046875  L 3.86067708333333 8.60677083333333  C 3.64800347222222 8.53732638888889  3.45269097222222 8.45703125  3.27473958333333 8.36588541666667  L 2.35677083333333 9.0625  C 2.31336805555556 9.1015625  2.25911458333333 9.12109375  2.19401041666667 9.12109375  C 2.13324652777778 9.12109375  2.07899305555556 9.09722222222222  2.03125 9.04947916666667  C 1.484375 8.5546875  1.12630208333333 8.19010416666667  0.95703125 7.95572916666667  C 0.926649305555556 7.91232638888889  0.911458333333333 7.86241319444445  0.911458333333333 7.80598958333333  C 0.911458333333333 7.75390625  0.928819444444445 7.70399305555555  0.963541666666667 7.65625  C 1.02864583333333 7.56510416666667  1.13932291666667 7.42078993055556  1.29557291666667 7.22330729166667  C 1.45182291666667 7.02582465277778  1.56901041666667 6.87282986111111  1.64713541666667 6.76432291666667  C 1.52994791666667 6.54730902777778  1.44097222222222 6.33246527777778  1.38020833333333 6.11979166666667  L 0.188802083333333 5.94401041666667  C 0.132378472222222 5.93532986111111  0.0868055555555556 5.908203125  0.0520833333333333 5.86263020833333  C 0.0173611111111111 5.81705729166667  0 5.76605902777778  0 5.70963541666667  L 0 4.26432291666667  C 0 4.21223958333333  0.0173611111111111 4.16232638888889  0.0520833333333333 4.11458333333333  C 0.0868055555555556 4.06684027777778  0.128038194444444 4.03862847222222  0.17578125 4.02994791666667  L 1.38671875 3.84765625  C 1.44748263888889 3.64800347222222  1.53211805555556 3.44835069444444  1.640625 3.24869791666667  C 1.46701388888889 3.00130208333333  1.23480902777778 2.70182291666667  0.944010416666667 2.35026041666667  C 0.900607638888889 2.29817708333333  0.87890625 2.24609375  0.87890625 2.19401041666667  C 0.87890625 2.15060763888889  0.8984375 2.10069444444444  0.9375 2.04427083333333  C 1.05034722222222 1.88802083333333  1.26410590277778 1.65473090277778  1.57877604166667 1.34440104166667  C 1.89344618055556 1.03407118055555  2.09852430555556 0.87890625  2.19401041666667 0.87890625  C 2.25043402777778 0.87890625  2.30685763888889 0.900607638888888  2.36328125 0.944010416666666  L 3.26171875 1.640625  C 3.45269097222222 1.54079861111111  3.65017361111111 1.45833333333333  3.85416666666667 1.39322916666667  C 3.92361111111111 0.802951388888888  3.98654513888889 0.399305555555555  4.04296875 0.182291666666666  C 4.07335069444444 0.0607638888888884  4.15147569444444 0  4.27734375 0  L 5.72265625 0  C 5.78342013888889 0  5.83658854166667 0.0184461805555547  5.88216145833333 0.0553385416666663  C 5.927734375 0.0922309027777768  5.95269097222222 0.138888888888888  5.95703125 0.1953125  L 6.13932291666667 1.39322916666667  C 6.35199652777778 1.46267361111111  6.54730902777778 1.54296875  6.72526041666667 1.63411458333333  L 7.64973958333333 0.9375  C 7.68880208333333 0.8984375  7.74088541666667 0.87890625  7.80598958333333 0.87890625  C 7.86241319444445 0.87890625  7.91666666666667 0.900607638888888  7.96875 0.944010416666666  C 8.52864583333333 1.46050347222222  8.88671875 1.82942708333333  9.04296875 2.05078125  C 9.07335069444444 2.08550347222222  9.08854166666667 2.13324652777778  9.08854166666667 2.19401041666667  C 9.08854166666667 2.24609375  9.07118055555556 2.29600694444444  9.03645833333333 2.34375  C 8.97135416666667 2.43489583333333  8.86067708333333 2.57921006944444  8.70442708333333 2.77669270833333  C 8.54817708333333 2.97417534722222  8.43098958333333 3.12717013888889  8.35286458333333 3.23567708333333  C 8.46571180555556 3.45269097222222  8.5546875 3.66536458333333  8.61979166666667 3.87369791666667  L 9.81119791666667 4.05598958333333  C 9.86762152777778 4.06467013888889  9.91319444444444 4.091796875  9.94791666666667 4.13736979166667  Z " fill-rule="nonzero" fill="#4a4a4a" stroke="none" transform="matrix(1 0 0 1 489 238 )" />
  </g>
</svg>